<svg xmlns="http://www.w3.org/2000/svg" viewBox="0 0 85.33 97.52"><title>Recurso 1</title><g id="Capa_2" data-name="Capa 2"><g id="Capa_1-2" data-name="Capa 1"><path d="M85.33,13.93v8.71c0,7.67-19.11,13.93-42.66,13.93S0,30.31,0,22.64V13.93C0,6.26,19.11,0,42.67,0S85.33,6.26,85.33,13.93Zm0,19.59v19.6c0,7.67-19.11,13.93-42.66,13.93S0,60.79,0,53.12V33.52c9.17,6.32,25.94,9.26,42.67,9.26S76.17,39.84,85.33,33.52Zm0,30.48V83.59c0,7.68-19.11,13.93-42.66,13.93S0,91.27,0,83.59V64c9.17,6.31,25.94,9.25,42.67,9.25S76.17,70.31,85.33,64Z"/></g></g></svg>